<svg width="18" height="14" viewBox="0 0 18 14" fill="none" xmlns="http://www.w3.org/2000/svg">
<path d="M15.2377 1.36874C14.0902 0.851236 12.8602 0.468736 11.574 0.251236C11.5625 0.249037 11.5507 0.250454 11.5401 0.255292C11.5295 0.260129 11.5206 0.268147 11.5147 0.278236C11.3572 0.554986 11.1817 0.915736 11.0587 1.20074C9.69457 0.996914 8.30767 0.996914 6.9435 1.20074C6.8065 0.884881 6.65201 0.576904 6.48074 0.278236C6.47494 0.268023 6.46616 0.259823 6.45557 0.254731C6.44498 0.249639 6.4331 0.247896 6.42149 0.249736C5.13599 0.467236 3.90599 0.849736 2.75774 1.36799C2.74787 1.37213 2.73949 1.3792 2.73374 1.38824C0.399744 4.81949 -0.240006 8.16599 0.0742443 11.4705C0.0751187 11.4786 0.0776309 11.4864 0.081628 11.4935C0.085625 11.5006 0.0910233 11.5068 0.0974943 11.5117C1.45979 12.5036 2.97925 13.2591 4.59224 13.7467C4.60349 13.7502 4.61552 13.7502 4.62675 13.7467C4.63799 13.7432 4.64792 13.7364 4.65524 13.7272C5.00234 13.263 5.30992 12.7706 5.57474 12.255C5.57842 12.2479 5.58054 12.2402 5.58096 12.2322C5.58137 12.2243 5.58008 12.2164 5.57717 12.209C5.57425 12.2016 5.56978 12.1949 5.56406 12.1894C5.55833 12.1839 5.55149 12.1796 5.54399 12.177C5.0595 11.9945 4.59006 11.7744 4.13999 11.5185C4.13191 11.5139 4.12509 11.5073 4.12016 11.4994C4.11523 11.4915 4.11234 11.4825 4.11174 11.4732C4.11115 11.4639 4.11287 11.4546 4.11676 11.4462C4.12064 11.4377 4.12656 11.4303 4.13399 11.4247C4.22849 11.355 4.32299 11.2822 4.41299 11.2095C4.4211 11.2029 4.43085 11.1988 4.44118 11.1975C4.45151 11.1961 4.462 11.1977 4.47149 11.202C7.41674 12.525 10.6065 12.525 13.5172 11.202C13.5268 11.1974 13.5374 11.1957 13.5478 11.1969C13.5583 11.1981 13.5682 11.2022 13.5765 11.2087C13.6665 11.2822 13.7602 11.355 13.8555 11.4247C13.863 11.4302 13.869 11.4375 13.873 11.4459C13.877 11.4543 13.8789 11.4635 13.8785 11.4728C13.878 11.4821 13.8753 11.4911 13.8705 11.4991C13.8657 11.5071 13.859 11.5137 13.851 11.5185C13.4025 11.7765 12.936 11.9947 12.4462 12.1762C12.4387 12.179 12.4319 12.1833 12.4261 12.1889C12.4204 12.1944 12.416 12.2012 12.413 12.2087C12.4101 12.2161 12.4088 12.2241 12.4093 12.2321C12.4097 12.2401 12.4118 12.2479 12.4155 12.255C12.6855 12.7702 12.9945 13.2607 13.3342 13.7265C13.3413 13.736 13.3511 13.7432 13.3624 13.7469C13.3737 13.7507 13.3859 13.7509 13.3972 13.7475C15.013 13.2612 16.5349 12.5053 17.8987 11.5117C17.9054 11.5071 17.911 11.5011 17.9151 11.4941C17.9193 11.4871 17.9219 11.4793 17.9227 11.4712C18.2977 7.65074 17.2942 4.33124 15.261 1.38974C15.256 1.38018 15.2478 1.37273 15.2377 1.36874ZM6.015 9.45824C5.1285 9.45824 4.39724 8.65649 4.39724 7.67324C4.39724 6.68924 5.11424 5.88824 6.015 5.88824C6.9225 5.88824 7.647 6.69599 7.63274 7.67324C7.63274 8.65724 6.91575 9.45824 6.015 9.45824ZM11.9962 9.45824C11.109 9.45824 10.3785 8.65649 10.3785 7.67324C10.3785 6.68924 11.0947 5.88824 11.9962 5.88824C12.9037 5.88824 13.6282 6.69599 13.614 7.67324C13.614 8.65724 12.9045 9.45824 11.9962 9.45824Z" fill="white"/>
</svg>
