<svg width="18" height="18" viewBox="0 0 18 18" fill="none" xmlns="http://www.w3.org/2000/svg">
<path d="M9.82125 14.0355C9.198 12.8081 8.46675 11.5684 7.03912 11.5684C6.76687 11.5684 6.49463 11.6134 6.24375 11.7281L5.76 10.7573C6.35063 10.251 7.30463 9.84825 8.532 9.84825C10.4411 9.84825 11.421 10.7685 12.1995 11.9408C12.6607 10.9395 12.8801 9.58613 12.8801 7.90875C12.8801 3.71925 11.5695 1.56825 8.5095 1.56825C5.4945 1.56825 4.19062 3.71925 4.19062 7.90875C4.19062 12.0758 5.4945 14.2043 8.51062 14.2043C8.98875 14.2043 9.423 14.1525 9.82238 14.0355H9.82125ZM10.5694 15.498C9.89793 15.6784 9.20587 15.7706 8.51062 15.7725C4.49325 15.7725 0.5625 12.5685 0.5625 7.90875C0.5625 3.20513 4.49438 0 8.5095 0C12.5933 0 16.4858 3.1815 16.4858 7.90875C16.4858 10.5379 15.2595 12.6743 13.4764 14.0558C14.0524 14.9186 14.6464 15.4924 15.471 15.4924C16.3733 15.4924 16.7366 14.7949 16.7974 14.2493H17.9708C18.0394 14.9771 17.676 18 14.3955 18C12.4076 18 11.358 16.848 10.5705 15.498H10.5694Z" fill="white"/>
</svg>
