<svg width="18" height="18" viewBox="0 0 18 18" fill="none" xmlns="http://www.w3.org/2000/svg">
<path fill-rule="evenodd" clip-rule="evenodd" d="M18 9C18 13.9703 13.9702 18 8.99997 18C4.02972 18 -3.05176e-05 13.9703 -3.05176e-05 9C-3.05176e-05 4.02975 4.02972 0 8.99997 0C13.9702 0 18 4.02975 18 9ZM14.766 8.2935C14.9115 8.50125 14.994 8.7465 15.003 9C15.0069 9.248 14.9405 9.49204 14.8115 9.70388C14.6825 9.91572 14.4961 10.0867 14.274 10.197C14.2845 10.329 14.2845 10.461 14.274 10.593C14.274 12.609 11.925 14.247 9.02697 14.247C6.12897 14.247 3.77997 12.609 3.77997 10.593C3.76984 10.4612 3.76984 10.3288 3.77997 10.197C3.60835 10.1167 3.45616 10.0001 3.33386 9.85537C3.21156 9.71062 3.12206 9.54111 3.0715 9.35848C3.02094 9.17586 3.01053 8.98445 3.04097 8.79742C3.07142 8.61039 3.142 8.43217 3.24787 8.275C3.35374 8.11784 3.49239 7.98547 3.65428 7.88698C3.81617 7.7885 3.99747 7.72624 4.18571 7.70448C4.37395 7.68272 4.56467 7.70198 4.74476 7.76093C4.92485 7.81989 5.09004 7.91714 5.22897 8.046C6.26601 7.34267 7.48606 6.95789 8.73897 6.939L9.40497 3.816C9.41245 3.77985 9.42703 3.74554 9.44787 3.71506C9.4687 3.68458 9.49538 3.65854 9.52636 3.63845C9.55733 3.61836 9.59198 3.60461 9.62831 3.59801C9.66463 3.59141 9.70191 3.59209 9.73797 3.6L11.943 4.041C12.0507 3.85599 12.2207 3.71543 12.4227 3.64453C12.6247 3.57363 12.8453 3.57705 13.045 3.65417C13.2447 3.73129 13.4104 3.87705 13.5123 4.0653C13.6142 4.25356 13.6457 4.47197 13.601 4.68133C13.5564 4.89069 13.4386 5.07729 13.2688 5.20764C13.099 5.33799 12.8883 5.40355 12.6746 5.39255C12.4608 5.38155 12.2579 5.29471 12.1024 5.14763C11.9469 5.00054 11.8489 4.80283 11.826 4.59L9.89997 4.185L9.31497 6.993C10.5527 7.01955 11.7561 7.40404 12.78 8.1C12.9166 7.96859 13.0802 7.86834 13.2593 7.80613C13.4384 7.74391 13.6288 7.72122 13.8175 7.73961C14.0062 7.75799 14.1887 7.81702 14.3524 7.91264C14.5162 8.00825 14.6572 8.13818 14.766 8.2935ZM6.15447 9.39975C6.08878 9.49804 6.04309 9.60832 6.02001 9.72427C5.99693 9.84022 5.99692 9.95958 6.01997 10.0755C6.06653 10.3097 6.2042 10.5158 6.40272 10.6485C6.60123 10.7812 6.84432 10.8296 7.07851 10.783C7.19447 10.7599 7.30475 10.7143 7.40306 10.6486C7.50136 10.5829 7.58578 10.4985 7.65147 10.4002C7.78414 10.2017 7.83252 9.95865 7.78597 9.72446C7.73941 9.49028 7.60173 9.28417 7.40322 9.1515C7.20471 9.01883 6.96162 8.97044 6.72743 9.017C6.49324 9.06356 6.28714 9.20124 6.15447 9.39975ZM9.00897 13.068C9.80772 13.101 10.5937 12.8925 11.232 12.411C11.2797 12.3645 11.307 12.3009 11.3078 12.2342C11.3087 12.1675 11.283 12.1032 11.2365 12.0555C11.2134 12.0319 11.1859 12.013 11.1556 12C11.1253 11.987 11.0927 11.98 11.0597 11.9796C10.993 11.9788 10.9287 12.0045 10.881 12.051C10.3348 12.4428 9.67119 12.6365 8.99997 12.6C8.32958 12.63 7.66908 12.4299 7.12797 12.033C7.08134 11.9947 7.02214 11.9752 6.96189 11.9781C6.90163 11.9811 6.84464 12.0064 6.80198 12.049C6.75932 12.0917 6.73406 12.1487 6.7311 12.2089C6.72814 12.2692 6.7477 12.3284 6.78597 12.375C7.4245 12.8562 8.21012 13.1011 9.00897 13.068ZM10.5697 10.6845C10.7182 10.7835 10.8832 10.872 11.061 10.872C11.183 10.8734 11.3041 10.85 11.4168 10.8031C11.5295 10.7562 11.6315 10.6869 11.7166 10.5993C11.8016 10.5117 11.8679 10.4078 11.9115 10.2937C11.9551 10.1797 11.975 10.058 11.97 9.936C11.9699 9.78054 11.9296 9.62774 11.8529 9.4925C11.7763 9.35726 11.6659 9.24418 11.5325 9.16429C11.3991 9.08439 11.2474 9.0404 11.092 9.0366C10.9365 9.03281 10.7828 9.06933 10.6457 9.14262C10.5086 9.21591 10.3928 9.32346 10.3096 9.45479C10.2265 9.58613 10.1787 9.73677 10.1711 9.89205C10.1634 10.0473 10.1961 10.2019 10.266 10.3408C10.3358 10.4797 10.4405 10.5981 10.5697 10.6845Z" fill="white"/>
</svg>
