<svg width="18" height="18" viewBox="0 0 18 18" fill="none" xmlns="http://www.w3.org/2000/svg">
<path d="M1.92857 0C0.863839 0 0 0.863839 0 1.92857V16.0714C0 17.1362 0.863839 18 1.92857 18H16.0714C17.1362 18 18 17.1362 18 16.0714V1.92857C18 0.863839 17.1362 0 16.0714 0H1.92857ZM11.0117 2.57143L14.4264 7.17388L13.506 7.8568L10.0913 3.25434L11.0117 2.57143ZM8.88879 4.41249L13.2982 8.07951L12.5705 8.95552L8.16127 5.28818L8.88879 4.41249ZM7.19618 6.78789L12.3926 9.22255L11.9176 10.2618L6.72127 7.84197L7.19618 6.78789ZM6.21643 9.38612L11.8283 10.5588L11.5908 11.6874L5.97897 10.5143L6.21643 9.38604V9.38612ZM3.57348 10.841H4.71696V14.2856H12.7489V10.8409H13.8919V15.4286H3.57348V10.8409V10.841ZM5.86 11.9843H11.5907V13.1274H5.86004V11.9843H5.86Z" fill="white"/>
</svg>
