<svg width="18" height="12" viewBox="0 0 18 12" fill="none" xmlns="http://www.w3.org/2000/svg">
<path d="M17.6249 1.88055C17.523 1.51697 17.3245 1.18781 17.0504 0.928051C16.7686 0.660304 16.4233 0.468778 16.0469 0.371551C14.6384 0.000301115 8.99541 0.000301198 8.99541 0.000301198C6.64291 -0.0264643 4.29099 0.0912571 1.95291 0.352801C1.57656 0.457211 1.23184 0.653016 0.949414 0.922801C0.671914 1.1898 0.470914 1.51905 0.365914 1.8798C0.113683 3.23861 -0.00886741 4.61831 -8.6429e-05 6.0003C-0.00908643 7.38105 0.113164 8.7603 0.365914 10.1208C0.468664 10.4801 0.668914 10.8078 0.947164 11.0726C1.22541 11.3373 1.57191 11.5286 1.95291 11.6298C3.38016 12.0003 8.99541 12.0003 8.99541 12.0003C11.3509 12.0271 13.7058 11.9094 16.0469 11.6478C16.4233 11.5506 16.7686 11.359 17.0504 11.0913C17.3244 10.8316 17.5227 10.5024 17.6242 10.1388C17.883 8.78052 18.0088 7.40024 17.9999 6.01755C18.0194 4.629 17.8937 3.24222 17.6249 1.8798V1.88055ZM7.20141 8.5683V3.43305L11.8964 6.00105L7.20141 8.5683Z" fill="white"/>
</svg>
